<mxfile host="65bd71144e">
    <diagram name="Strona-1" id="PxvSRAu7eu6UJ6eb0uBy">
        <mxGraphModel dx="664" dy="287" grid="1" gridSize="10" guides="1" tooltips="1" connect="1" arrows="1" fold="1" page="1" pageScale="1" pageWidth="827" pageHeight="1169" math="0" shadow="0">
            <root>
                <mxCell id="0"/>
                <mxCell id="1" parent="0"/>
                <mxCell id="mDa6C6_Soye0KUJeWVM5-14" style="edgeStyle=orthogonalEdgeStyle;rounded=0;orthogonalLoop=1;jettySize=auto;html=1;exitX=0.5;exitY=1;exitDx=0;exitDy=0;exitPerimeter=0;" parent="1" source="mDa6C6_Soye0KUJeWVM5-1" target="mDa6C6_Soye0KUJeWVM5-2" edge="1">
                    <mxGeometry relative="1" as="geometry"/>
                </mxCell>
                <mxCell id="mDa6C6_Soye0KUJeWVM5-11" value="" style="edgeStyle=orthogonalEdgeStyle;rounded=0;orthogonalLoop=1;jettySize=auto;html=1;" parent="1" source="mDa6C6_Soye0KUJeWVM5-2" target="mDa6C6_Soye0KUJeWVM5-9" edge="1">
                    <mxGeometry relative="1" as="geometry"/>
                </mxCell>
                <mxCell id="mDa6C6_Soye0KUJeWVM5-1" value="&lt;div&gt;ISP&lt;/div&gt;" style="html=1;outlineConnect=0;fillColor=#CCCCCC;strokeColor=#6881B3;gradientColor=none;gradientDirection=north;strokeWidth=2;shape=mxgraph.networks.cloud;fontColor=#0066CC;align=center;verticalAlign=top;labelPosition=center;verticalLabelPosition=bottom;labelBackgroundColor=default;" parent="1" vertex="1">
                    <mxGeometry x="369" y="70" width="90" height="50" as="geometry"/>
                </mxCell>
                <mxCell id="mDa6C6_Soye0KUJeWVM5-10" style="edgeStyle=orthogonalEdgeStyle;rounded=0;orthogonalLoop=1;jettySize=auto;html=1;entryX=0.5;entryY=0;entryDx=0;entryDy=0;entryPerimeter=0;" parent="1" source="mDa6C6_Soye0KUJeWVM5-2" target="mDa6C6_Soye0KUJeWVM5-9" edge="1">
                    <mxGeometry relative="1" as="geometry"/>
                </mxCell>
                <mxCell id="mDa6C6_Soye0KUJeWVM5-2" value="ONT" style="fontColor=#0066CC;verticalAlign=top;verticalLabelPosition=bottom;labelPosition=center;align=center;html=1;outlineConnect=0;fillColor=#CCCCCC;strokeColor=#6881B3;gradientColor=none;gradientDirection=north;strokeWidth=2;shape=mxgraph.networks.modem;labelBackgroundColor=default;" parent="1" vertex="1">
                    <mxGeometry x="364" y="180" width="100" height="30" as="geometry"/>
                </mxCell>
                <mxCell id="mDa6C6_Soye0KUJeWVM5-16" style="edgeStyle=orthogonalEdgeStyle;rounded=0;orthogonalLoop=1;jettySize=auto;html=1;entryX=0.5;entryY=0;entryDx=0;entryDy=0;entryPerimeter=0;" parent="1" source="mDa6C6_Soye0KUJeWVM5-9" target="mDa6C6_Soye0KUJeWVM5-15" edge="1">
                    <mxGeometry relative="1" as="geometry"/>
                </mxCell>
                <mxCell id="mDa6C6_Soye0KUJeWVM5-19" style="edgeStyle=orthogonalEdgeStyle;rounded=0;orthogonalLoop=1;jettySize=auto;html=1;" parent="1" source="mDa6C6_Soye0KUJeWVM5-9" edge="1">
                    <mxGeometry relative="1" as="geometry">
                        <mxPoint x="414" y="385" as="targetPoint"/>
                    </mxGeometry>
                </mxCell>
                <mxCell id="mDa6C6_Soye0KUJeWVM5-22" style="edgeStyle=orthogonalEdgeStyle;rounded=0;orthogonalLoop=1;jettySize=auto;html=1;entryX=0.5;entryY=0;entryDx=0;entryDy=0;entryPerimeter=0;" parent="1" source="mDa6C6_Soye0KUJeWVM5-9" target="mDa6C6_Soye0KUJeWVM5-21" edge="1">
                    <mxGeometry relative="1" as="geometry"/>
                </mxCell>
                <mxCell id="mDa6C6_Soye0KUJeWVM5-24" style="edgeStyle=orthogonalEdgeStyle;rounded=0;orthogonalLoop=1;jettySize=auto;html=1;" parent="1" source="mDa6C6_Soye0KUJeWVM5-9" target="mDa6C6_Soye0KUJeWVM5-23" edge="1">
                    <mxGeometry relative="1" as="geometry"/>
                </mxCell>
                <mxCell id="mDa6C6_Soye0KUJeWVM5-9" value="Asus Router (Merlin)" style="fontColor=#0066CC;verticalAlign=top;verticalLabelPosition=bottom;labelPosition=center;align=center;html=1;outlineConnect=0;fillColor=#CCCCCC;strokeColor=#6881B3;gradientColor=none;gradientDirection=north;strokeWidth=2;shape=mxgraph.networks.router;labelBackgroundColor=default;labelBorderColor=none;" parent="1" vertex="1">
                    <mxGeometry x="364" y="280" width="100" height="30" as="geometry"/>
                </mxCell>
                <mxCell id="mDa6C6_Soye0KUJeWVM5-47" style="edgeStyle=orthogonalEdgeStyle;rounded=0;orthogonalLoop=1;jettySize=auto;html=1;entryX=0.5;entryY=0;entryDx=0;entryDy=0;" parent="1" source="mDa6C6_Soye0KUJeWVM5-15" target="mDa6C6_Soye0KUJeWVM5-45" edge="1">
                    <mxGeometry relative="1" as="geometry"/>
                </mxCell>
                <mxCell id="mDa6C6_Soye0KUJeWVM5-15" value="Unmanaged switch" style="fontColor=#0066CC;verticalAlign=top;verticalLabelPosition=bottom;labelPosition=center;align=center;html=1;outlineConnect=0;fillColor=#CCCCCC;strokeColor=#6881B3;gradientColor=none;gradientDirection=north;strokeWidth=2;shape=mxgraph.networks.switch;labelBackgroundColor=default;" parent="1" vertex="1">
                    <mxGeometry x="140" y="437.5" width="100" height="30" as="geometry"/>
                </mxCell>
                <mxCell id="mDa6C6_Soye0KUJeWVM5-20" value="QNAP" style="fontColor=#0066CC;verticalAlign=top;verticalLabelPosition=bottom;labelPosition=center;align=center;html=1;outlineConnect=0;fillColor=#CCCCCC;strokeColor=#6881B3;gradientColor=none;gradientDirection=north;strokeWidth=2;shape=mxgraph.networks.server_storage;labelBackgroundColor=default;" parent="1" vertex="1">
                    <mxGeometry x="361" y="400" width="105" height="105" as="geometry"/>
                </mxCell>
                <mxCell id="mDa6C6_Soye0KUJeWVM5-21" value="RPi&lt;br&gt;Home-Assistant&lt;br&gt;Adguard Home DNS" style="fontColor=#0066CC;verticalAlign=top;verticalLabelPosition=bottom;labelPosition=center;align=center;html=1;outlineConnect=0;fillColor=#CCCCCC;strokeColor=#6881B3;gradientColor=none;gradientDirection=north;strokeWidth=2;shape=mxgraph.networks.desktop_pc;labelBackgroundColor=default;" parent="1" vertex="1">
                    <mxGeometry x="630" y="423" width="30" height="60" as="geometry"/>
                </mxCell>
                <mxCell id="mDa6C6_Soye0KUJeWVM5-23" value="Other home devices" style="fontColor=#0066CC;verticalAlign=top;verticalLabelPosition=bottom;labelPosition=center;align=center;html=1;outlineConnect=0;fillColor=#CCCCCC;strokeColor=#6881B3;gradientColor=none;gradientDirection=north;strokeWidth=2;shape=mxgraph.networks.desktop_pc;labelBackgroundColor=default;spacingTop=7;" parent="1" vertex="1">
                    <mxGeometry x="630" y="130" width="30" height="60" as="geometry"/>
                </mxCell>
                <mxCell id="mDa6C6_Soye0KUJeWVM5-25" value="WIFI devices" style="fontColor=#0066CC;verticalAlign=top;verticalLabelPosition=bottom;labelPosition=center;align=center;html=1;outlineConnect=0;fillColor=#CCCCCC;strokeColor=#6881B3;gradientColor=none;gradientDirection=north;strokeWidth=2;shape=mxgraph.networks.desktop_pc;labelBackgroundColor=default;" parent="1" vertex="1">
                    <mxGeometry x="175" y="130" width="30" height="60" as="geometry"/>
                </mxCell>
                <mxCell id="mDa6C6_Soye0KUJeWVM5-28" value="" style="html=1;outlineConnect=0;fillColor=#CCCCCC;strokeColor=#6881B3;gradientColor=none;gradientDirection=north;strokeWidth=2;shape=mxgraph.networks.comm_link_edge;html=1;rounded=0;verticalAlign=middle;entryX=1;entryY=0.5;entryDx=0;entryDy=0;entryPerimeter=0;exitX=0.05;exitY=0.05;exitDx=0;exitDy=0;exitPerimeter=0;" parent="1" source="mDa6C6_Soye0KUJeWVM5-9" target="mDa6C6_Soye0KUJeWVM5-25" edge="1">
                    <mxGeometry width="100" height="100" relative="1" as="geometry">
                        <mxPoint x="340" y="250" as="sourcePoint"/>
                        <mxPoint x="230" y="170" as="targetPoint"/>
                    </mxGeometry>
                </mxCell>
                <mxCell id="mDa6C6_Soye0KUJeWVM5-51" value="" style="group" parent="1" vertex="1" connectable="0">
                    <mxGeometry x="5" y="580" width="370" height="185" as="geometry"/>
                </mxCell>
                <mxCell id="mDa6C6_Soye0KUJeWVM5-45" value="&lt;div&gt;Home cluster&lt;/div&gt;" style="rounded=0;whiteSpace=wrap;html=1;align=center;horizontal=1;verticalAlign=top;" parent="mDa6C6_Soye0KUJeWVM5-51" vertex="1">
                    <mxGeometry width="370" height="185" as="geometry"/>
                </mxCell>
                <mxCell id="mDa6C6_Soye0KUJeWVM5-48" value="" style="image;sketch=0;aspect=fixed;html=1;points=[];align=center;fontSize=12;image=img/lib/mscae/Kubernetes.svg;" parent="mDa6C6_Soye0KUJeWVM5-51" vertex="1">
                    <mxGeometry width="50" height="48" as="geometry"/>
                </mxCell>
                <mxCell id="mDa6C6_Soye0KUJeWVM5-31" value="Lenovo M720q" style="fontColor=#0066CC;verticalAlign=top;verticalLabelPosition=bottom;labelPosition=center;align=center;html=1;outlineConnect=0;fillColor=#CCCCCC;strokeColor=#6881B3;gradientColor=none;gradientDirection=north;strokeWidth=2;shape=mxgraph.networks.server;labelBackgroundColor=default;" parent="mDa6C6_Soye0KUJeWVM5-51" vertex="1">
                    <mxGeometry x="28.46153846153846" y="68.45238095238096" width="85.38461538461539" height="88.09523809523809" as="geometry"/>
                </mxCell>
                <mxCell id="mDa6C6_Soye0KUJeWVM5-32" value="Lenovo M720q" style="fontColor=#0066CC;verticalAlign=top;verticalLabelPosition=bottom;labelPosition=center;align=center;html=1;outlineConnect=0;fillColor=#CCCCCC;strokeColor=#6881B3;gradientColor=none;gradientDirection=north;strokeWidth=2;shape=mxgraph.networks.server;labelBackgroundColor=default;" parent="mDa6C6_Soye0KUJeWVM5-51" vertex="1">
                    <mxGeometry x="246.66666666666666" y="68.45238095238096" width="85.38461538461539" height="88.09523809523809" as="geometry"/>
                </mxCell>
                <mxCell id="mDa6C6_Soye0KUJeWVM5-30" value="Lenovo M720q" style="fontColor=#0066CC;verticalAlign=top;verticalLabelPosition=bottom;labelPosition=center;align=center;html=1;outlineConnect=0;fillColor=#CCCCCC;strokeColor=#6881B3;gradientColor=none;gradientDirection=north;strokeWidth=2;shape=mxgraph.networks.server;labelBackgroundColor=default;" parent="mDa6C6_Soye0KUJeWVM5-51" vertex="1">
                    <mxGeometry x="142.3041025641026" y="68.45238095238096" width="85.38461538461539" height="88.09523809523809" as="geometry"/>
                </mxCell>
            </root>
        </mxGraphModel>
    </diagram>
</mxfile>
